<?xml version="1.0" encoding="UTF-8"?>
<svg xmlns="http://www.w3.org/2000/svg" width="34.0mm" height="34.0mm" viewBox="0 0 34.0 34.0">
<title>tag36h11 ID 112</title>
<rect width="34.0" height="34.0" fill="#fff"/>
<rect x="3.4000" y="3.4000" width="27.2000" height="3.4000" fill="#000"/>
<rect x="3.4000" y="6.8000" width="3.4000" height="3.4000" fill="#000"/>
<rect x="27.2000" y="6.8000" width="3.4000" height="3.4000" fill="#000"/>
<rect x="3.4000" y="10.2000" width="6.8000" height="3.4000" fill="#000"/>
<rect x="17.0000" y="10.2000" width="13.6000" height="3.4000" fill="#000"/>
<rect x="3.4000" y="13.6000" width="3.4000" height="3.4000" fill="#000"/>
<rect x="10.2000" y="13.6000" width="3.4000" height="3.4000" fill="#000"/>
<rect x="20.4000" y="13.6000" width="10.2000" height="3.4000" fill="#000"/>
<rect x="3.4000" y="17.0000" width="6.8000" height="3.4000" fill="#000"/>
<rect x="27.2000" y="17.0000" width="3.4000" height="3.4000" fill="#000"/>
<rect x="3.4000" y="20.4000" width="3.4000" height="3.4000" fill="#000"/>
<rect x="13.6000" y="20.4000" width="3.4000" height="3.4000" fill="#000"/>
<rect x="20.4000" y="20.4000" width="10.2000" height="3.4000" fill="#000"/>
<rect x="3.4000" y="23.8000" width="6.8000" height="3.4000" fill="#000"/>
<rect x="13.6000" y="23.8000" width="3.4000" height="3.4000" fill="#000"/>
<rect x="23.8000" y="23.8000" width="6.8000" height="3.4000" fill="#000"/>
<rect x="3.4000" y="27.2000" width="27.2000" height="3.4000" fill="#000"/>
</svg>
